:SAMPLES-PER-SECOND 30
:FULLY-SPECIFIED
:DEGREES
129
root  38.9559 39.952 0.364201 -31.4584 -86.2559 29.6077
RightUpLeg  -13.4872 -9.39366 -9.91614
RightLeg  21.8443 3.07555 1.14371
RightFoot  -4.0978 -0.448852 6.63918
RightToes  2.32829e-010 0 -3.6325e-017
Spine  26.1863 -0.714313 1.55779
Spine1  -4.01372 0.0518047 -2.65357
HEad  -23.314 0.716133 -2.61923
LeftShoulder1  11.171 -16.2719 -49.3202
LeftArm  -17.4297 13.9445 -22.1181
LeftForeArm  21.5468 -49.0919 -11.3285
LeftHand  -0.244104 0.0205437 5.32207
RightShoulder  6.57292 11.3155 38.2954
RightArm  -3.14285 -4.84415 33.0312
RightForeArm  -35.5545 59.0629 21.7736
RightHand  -0.773023 -0.127178 -17.0604
LeftUpLeg  -7.45786 10.3062 -1.33606
LeftLeg  12.6885 10.7368 -2.39784
LeftFoot  -3.33323 -0.293363 4.47712
LeftToes  1.42787e-010 7.94111e-011 2.6399e-011
130
root  38.8802 40.003 0.341013 -36.4259 -86.4509 34.0984
RightUpLeg  -12.1332 -9.47881 -10.9305
RightLeg  22.2198 0.173606 -0.134867
RightFoot  -5.35073 -0.301622 5.09012
RightToes  2.32829e-010 0 -3.6325e-017
Spine  25.0847 -0.612381 1.99012
Spine1  -3.6812 0.257238 -2.91718
HEad  -21.8306 0.543495 -2.69925
LeftShoulder1  11.1072 -16.087 -49.5015
LeftArm  -16.9215 14.7931 -22.783
LeftForeArm  22.6421 -48.5445 -11.0096
LeftHand  -0.244104 0.0205437 5.32207
RightShoulder  6.52211 11.1827 38.3489
RightArm  -2.0485 -5.88471 33.0222
RightForeArm  -35.8014 57.135 20.173
RightHand  -0.785079 0.0171016 -16.8597
LeftUpLeg  -6.33468 9.20932 -1.18607
LeftLeg  11.8009 12.0388 -2.56576
LeftFoot  -3.11874 -0.288376 4.27189
LeftToes  1.42787e-010 7.94111e-011 2.6399e-011
131
root  38.8295 40.0087 0.251939 -45.2053 -86.6819 42.5373
RightUpLeg  -10.7685 -8.95008 -11.8439
RightLeg  21.9143 -0.868746 -0.599082
RightFoot  -6.05587 -0.265928 4.87151
RightToes  2.32829e-010 0 -3.6325e-017
Spine  24.1224 -0.443296 2.23281
Spine1  -3.16984 0.543543 -3.42601
HEad  -21.148 0.0982557 -2.71851
LeftShoulder1  11.0054 -15.9006 -49.5195
LeftArm  -16.8703 15.6427 -23.2109
LeftForeArm  22.9185 -47.7431 -10.6564
LeftHand  -0.244104 0.0205437 5.32207
RightShoulder  6.50574 11.051 38.6266
RightArm  -0.996161 -6.41579 33.0621
RightForeArm  -36.7891 54.1734 18.078
RightHand  -0.841891 0.437721 -16.8003
LeftUpLeg  -5.69768 8.63171 -1.16377
LeftLeg  11.5335 13.0924 -2.50076
LeftFoot  -3.1827 -0.264119 3.97092
LeftToes  1.42787e-010 7.94111e-011 2.6399e-011
132
root  38.807 39.9834 0.101506 -55.716 -86.7678 52.9388
RightUpLeg  -9.34356 -8.80755 -12.4466
RightLeg  20.371 -0.714221 -0.508708
RightFoot  -6.17786 -0.27158 5.08535
RightToes  2.32829e-010 0 -3.6325e-017
Spine  23.267 -0.21108 2.27701
Spine1  -2.6056 0.853151 -3.84636
HEad  -21.1109 -0.460313 -2.69648
LeftShoulder1  10.9635 -15.8096 -49.5633
LeftArm  -16.9203 16.3363 -23.2294
LeftForeArm  22.4623 -46.5144 -10.2016
LeftHand  -0.244104 0.0205437 5.32207
RightShoulder  6.50419 10.9604 38.8847
RightArm  -0.0670104 -6.7677 33.2907
RightForeArm  -38.0481 50.5298 15.9316
RightHand  -0.83803 0.587518 -16.3192
LeftUpLeg  -5.52954 8.75729 -1.21501
LeftLeg  11.6396 13.4666 -2.37728
LeftFoot  -3.35254 -0.234595 3.64926
LeftToes  1.42787e-010 7.94111e-011 2.6399e-011
133
root  38.8083 39.9615 -0.0970509 -62.7056 -86.619 60.154
RightUpLeg  -8.05911 -9.8894 -12.6794
RightLeg  17.8949 -0.114777 -0.246409
RightFoot  -5.97012 -0.285629 5.21799
RightToes  2.32829e-010 0 -3.6325e-017
Spine  22.323 -0.0365953 2.3367
Spine1  -1.94818 1.07507 -3.99097
HEad  -21.3742 -0.811966 -2.7544
LeftShoulder1  11.0058 -15.8036 -49.7696
LeftArm  -16.842 16.6967 -22.8382
LeftForeArm  21.8646 -44.9776 -9.66504
LeftHand  -0.244104 0.0205437 5.32207
RightShoulder  6.54635 10.9856 39.0876
RightArm  0.643374 -7.17224 33.635
RightForeArm  -39.6979 46.7432 14.0841
RightHand  -0.845069 0.766135 -15.9933
LeftUpLeg  -5.77534 9.38815 -1.34481
LeftLeg  11.7154 12.9793 -2.2568
LeftFoot  -3.41486 -0.202183 3.21097
LeftToes  1.42787e-010 7.94111e-011 2.6399e-011
134
root  38.8386 39.961 -0.335147 -66.4202 -86.4914 64.3228
RightUpLeg  -7.43572 -11.1768 -12.5159
RightLeg  15.8044 0.525602 0.030554
RightFoot  -5.69389 -0.299747 5.28591
RightToes  2.32829e-010 0 -3.6325e-017
Spine  21.3723 0.00625904 2.84688
Spine1  -1.04896 1.28835 -4.30936
HEad  -21.9656 -0.946348 -2.95884
LeftShoulder1  11.0478 -15.8042 -49.9574
LeftArm  -16.5678 16.4591 -22.3423
LeftForeArm  21.5589 -43.3633 -9.11219
LeftHand  -0.244104 0.0205437 5.32207
RightShoulder  6.66893 11.1197 39.4911
RightArm  1.11099 -7.49257 33.7739
RightForeArm  -42.0288 43.4297 12.728
RightHand  -0.914151 1.17706 -16.2325
LeftUpLeg  -6.3244 10.0673 -1.44833
LeftLeg  11.7137 12.3155 -1.97151
LeftFoot  -3.3504 -0.166079 2.64266
LeftToes  1.42787e-010 7.94111e-011 2.6399e-011
135
root  38.9109 39.9783 -0.604981 -72.8684 -86.6835 71.1982
RightUpLeg  -7.7588 -11.1346 -11.8841
RightLeg  15.0575 0.671806 0.159808
RightFoot  -5.27075 -0.305297 5.08151
RightToes  2.32829e-010 0 -3.6325e-017
Spine  20.8217 0.0072314 3.99254
Spine1  -0.0170792 1.67441 -5.13866
HEad  -23.0502 -1.07093 -3.28398
LeftShoulder1  11.0576 -15.8053 -49.9986
LeftArm  -16.1249 15.6721 -22.0316
LeftForeArm  21.322 -41.9197 -8.64171
LeftHand  -0.244104 0.0205437 5.32207
RightShoulder  6.82574 11.2761 40.0409
RightArm  1.4462 -7.5886 33.5907
RightForeArm  -44.673 41.0885 11.8991
RightHand  -0.971739 1.49881 -16.462
LeftUpLeg  -6.93645 10.5347 -1.2441
LeftLeg  11.751 12.2006 -1.53279
LeftFoot  -3.16595 -0.134712 2.12611
LeftToes  1.42787e-010 7.94111e-011 2.6399e-011
136
root  39.0252 39.9995 -0.896346 -80.9863 -87.0934 79.6258
RightUpLeg  -8.50713 -10.6601 -10.9399
RightLeg  15.0531 0.661679 0.18735
RightFoot  -4.60285 -0.298511 4.53644
RightToes  2.32829e-010 0 -3.6325e-017
Spine  20.8537 -0.0266468 5.27556
Spine1  0.811115 2.03841 -5.85154
HEad  -24.3628 -1.13717 -3.69022
LeftShoulder1  11.083 -15.8595 -49.9731
LeftArm  -15.6789 14.8482 -21.9832
LeftForeArm  20.7918 -41.0322 -8.38907
LeftHand  -0.244104 0.0205437 5.32207
RightShoulder  6.90776 11.3807 40.2551
RightArm  1.58918 -7.57775 33.3831
RightForeArm  -46.5603 40.0429 11.5694
RightHand  -0.960474 1.52021 -16.2243
LeftUpLeg  -7.5616 11.1274 -0.740821
LeftLeg  11.9453 11.9205 -1.08778
LeftFoot  -2.87665 -0.106007 1.67035
LeftToes  1.42787e-010 7.94111e-011 2.6399e-011
